<?xml version="1.0" encoding="UTF-8" standalone="no"?>
<!DOCTYPE svg PUBLIC "-//W3C//DTD SVG 1.1//EN"
 "http://www.w3.org/Graphics/SVG/1.1/DTD/svg11.dtd">
<!-- Generated by graphviz version 14.1.5 (20260411.2331)
 -->
<!-- Title: dependency&#45;cruiser output Pages: 1 -->
<svg width="436pt" height="322pt"
 viewBox="0.00 0.00 436.00 322.00" xmlns="http://www.w3.org/2000/svg" xmlns:xlink="http://www.w3.org/1999/xlink">
<g id="graph0" class="graph" transform="scale(1 1) rotate(0) translate(4 317.91)">
<title>dependency&#45;cruiser output</title>
<polygon fill="white" stroke="none" points="-4,4 -4,-317.91 432.25,-317.91 432.25,4 -4,4"/>
<g id="clust1" class="cluster">
<title>cluster_src</title>
<path fill="#ffffff" stroke="black" stroke-width="2" d="M20,-19.91C20,-19.91 408.25,-19.91 408.25,-19.91 414.25,-19.91 420.25,-25.91 420.25,-31.91 420.25,-31.91 420.25,-293.91 420.25,-293.91 420.25,-299.91 414.25,-305.91 408.25,-305.91 408.25,-305.91 20,-305.91 20,-305.91 14,-305.91 8,-299.91 8,-293.91 8,-293.91 8,-31.91 8,-31.91 8,-25.91 14,-19.91 20,-19.91"/>
<text xml:space="preserve" text-anchor="middle" x="214.12" y="-293.36" font-family="Helvetica,sans-Serif" font-weight="bold" font-size="9.00">src</text>
</g>
<!-- src/common -->
<g id="node1" class="node">
<title>src/common</title>
<g id="a_node1"><a xlink:href="src/common" xlink:title="common">
<polygon fill="#ffffcc" stroke="black" points="345.25,-159.79 293.22,-159.79 291.25,-157.82 291.25,-142.04 343.28,-142.04 345.25,-144.01 345.25,-159.79"/>
<polyline fill="none" stroke="black" points="343.28,-157.82 291.25,-157.82"/>
<polyline fill="none" stroke="black" points="343.28,-157.82 343.28,-142.04"/>
<polyline fill="none" stroke="black" points="343.28,-157.82 345.25,-159.79"/>
<text xml:space="preserve" text-anchor="start" x="300.62" y="-148.29" font-family="Helvetica,sans-Serif" font-size="9.00">common</text>
</a>
</g>
</g>
<!-- src/utilities -->
<g id="node2" class="node">
<title>src/utilities</title>
<g id="a_node2"><a xlink:href="src/utilities" xlink:title="no&#45;orphans">
<polygon fill="#ccffcc" stroke="orange" points="412.25,-170.79 360.22,-170.79 358.25,-168.82 358.25,-153.04 410.28,-153.04 412.25,-155.01 412.25,-170.79"/>
<polyline fill="none" stroke="orange" points="410.28,-168.82 358.25,-168.82"/>
<polyline fill="none" stroke="orange" points="410.28,-168.82 410.28,-153.04"/>
<polyline fill="none" stroke="orange" points="410.28,-168.82 412.25,-170.79"/>
<text xml:space="preserve" text-anchor="start" x="371" y="-159.29" font-family="Helvetica,sans-Serif" font-size="9.00" fill="orange">utilities</text>
</a>
</g>
</g>
<!-- src/common&#45;&gt;src/utilities -->
<g id="edge1" class="edge">
<title>src/common&#45;&gt;src/utilities</title>
<path fill="none" stroke="#000000" stroke-width="2" stroke-opacity="0.200000" d="M345.69,-155.39C346.83,-155.58 347.99,-155.78 349.15,-155.97"/>
<polygon fill="#000000" fill-opacity="0.200000" stroke="#000000" stroke-width="2" stroke-opacity="0.200000" points="348.8,-158.04 355.06,-156.97 349.5,-153.9 348.8,-158.04"/>
</g>
<!-- src/document -->
<g id="node3" class="node">
<title>src/document</title>
<g id="a_node3"><a xlink:href="src/document" xlink:title="document">
<polygon fill="#ffffcc" stroke="black" points="278.25,-181.79 223.72,-181.79 221.75,-179.82 221.75,-164.04 276.28,-164.04 278.25,-166.01 278.25,-181.79"/>
<polyline fill="none" stroke="black" points="276.28,-179.82 221.75,-179.82"/>
<polyline fill="none" stroke="black" points="276.28,-179.82 276.28,-164.04"/>
<polyline fill="none" stroke="black" points="276.28,-179.82 278.25,-181.79"/>
<text xml:space="preserve" text-anchor="start" x="229.75" y="-170.29" font-family="Helvetica,sans-Serif" font-size="9.00">document</text>
</a>
</g>
</g>
<!-- src/document&#45;&gt;src/common -->
<g id="edge3" class="edge">
<title>src/document&#45;&gt;src/common</title>
<path fill="none" stroke="#000000" stroke-width="2" stroke-opacity="0.200000" d="M278.71,-163.71C280,-163.28 281.29,-162.85 282.59,-162.42"/>
<polygon fill="#000000" fill-opacity="0.200000" stroke="#000000" stroke-width="2" stroke-opacity="0.200000" points="283.23,-164.43 288.26,-160.54 281.9,-160.44 283.23,-164.43"/>
</g>
<!-- src/document&#45;&gt;src/utilities -->
<g id="edge2" class="edge">
<title>src/document&#45;&gt;src/utilities</title>
<path fill="none" stroke="#000000" stroke-width="2" stroke-opacity="0.200000" d="M278.65,-171.07C297.44,-169.76 322.86,-167.89 345.25,-165.91 346.52,-165.8 347.82,-165.68 349.12,-165.56"/>
<polygon fill="#000000" fill-opacity="0.200000" stroke="#000000" stroke-width="2" stroke-opacity="0.200000" points="349.04,-167.68 354.81,-165.02 348.64,-163.5 349.04,-167.68"/>
</g>
<!-- src/language&#45;css -->
<g id="node4" class="node">
<title>src/language&#45;css</title>
<g id="a_node4"><a xlink:href="src/language-css" xlink:title="language&#45;css">
<polygon fill="#ffffcc" stroke="black" points="89.38,-107.79 19.85,-107.79 17.88,-105.82 17.88,-90.04 87.4,-90.04 89.38,-92.01 89.38,-107.79"/>
<polyline fill="none" stroke="black" points="87.4,-105.82 17.88,-105.82"/>
<polyline fill="none" stroke="black" points="87.4,-105.82 87.4,-90.04"/>
<polyline fill="none" stroke="black" points="87.4,-105.82 89.38,-107.79"/>
<text xml:space="preserve" text-anchor="start" x="25.88" y="-96.29" font-family="Helvetica,sans-Serif" font-size="9.00">language&#45;css</text>
</a>
</g>
</g>
<!-- src/language&#45;css&#45;&gt;src/common -->
<g id="edge5" class="edge">
<title>src/language&#45;css&#45;&gt;src/common</title>
<path fill="none" stroke="#000000" stroke-width="2" stroke-opacity="0.200000" d="M73.95,-89.63C82.94,-85.8 93.91,-81.83 104.25,-79.91 149.92,-71.47 163.32,-70.24 208.75,-79.91 241.83,-86.96 250.5,-91.57 278.25,-110.91 287.87,-117.62 297.11,-126.92 304.18,-134.87"/>
<polygon fill="#000000" fill-opacity="0.200000" stroke="#000000" stroke-width="2" stroke-opacity="0.200000" points="302.54,-136.18 308.04,-139.37 305.73,-133.45 302.54,-136.18"/>
</g>
<!-- src/language&#45;css&#45;&gt;src/utilities -->
<g id="edge4" class="edge">
<title>src/language&#45;css&#45;&gt;src/utilities</title>
<path fill="none" stroke="#000000" stroke-width="2" stroke-opacity="0.200000" d="M58.5,-89.9C65.31,-75.35 80.95,-47.22 104.25,-35.91 200.83,10.95 263.4,17.54 345.25,-51.91 372.8,-75.29 380.89,-119.48 383.27,-144.14"/>
<polygon fill="#000000" fill-opacity="0.200000" stroke="#000000" stroke-width="2" stroke-opacity="0.200000" points="381.15,-143.99 383.71,-149.81 385.34,-143.67 381.15,-143.99"/>
</g>
<!-- src/language&#45;css&#45;&gt;src/document -->
<g id="edge7" class="edge">
<title>src/language&#45;css&#45;&gt;src/document</title>
<path fill="none" stroke="#000000" stroke-width="2" stroke-opacity="0.200000" d="M63.21,-108.2C72.45,-117.63 88.01,-131.92 104.25,-139.91 123.01,-149.15 176.14,-159.93 212.53,-166.59"/>
<polygon fill="#000000" fill-opacity="0.200000" stroke="#000000" stroke-width="2" stroke-opacity="0.200000" points="212.13,-168.66 218.41,-167.66 212.88,-164.52 212.13,-168.66"/>
</g>
<!-- src/language&#45;js -->
<g id="node5" class="node">
<title>src/language&#45;js</title>
<g id="a_node5"><a xlink:href="src/language-js" xlink:title="language&#45;js">
<polygon fill="#ffffcc" stroke="black" points="188.88,-133.79 126.1,-133.79 124.12,-131.82 124.12,-116.04 186.9,-116.04 188.88,-118.01 188.88,-133.79"/>
<polyline fill="none" stroke="black" points="186.9,-131.82 124.12,-131.82"/>
<polyline fill="none" stroke="black" points="186.9,-131.82 186.9,-116.04"/>
<polyline fill="none" stroke="black" points="186.9,-131.82 188.88,-133.79"/>
<text xml:space="preserve" text-anchor="start" x="132.12" y="-122.29" font-family="Helvetica,sans-Serif" font-size="9.00">language&#45;js</text>
</a>
</g>
</g>
<!-- src/language&#45;css&#45;&gt;src/language&#45;js -->
<g id="edge6" class="edge">
<title>src/language&#45;css&#45;&gt;src/language&#45;js</title>
<path fill="none" stroke="#000000" stroke-width="2" stroke-opacity="0.200000" d="M89.62,-107.93C97.9,-110.07 106.79,-112.36 115.28,-114.55"/>
<polygon fill="#000000" fill-opacity="0.200000" stroke="#000000" stroke-width="2" stroke-opacity="0.200000" points="114.67,-116.56 121.01,-116.02 115.72,-112.49 114.67,-116.56"/>
</g>
<!-- src/language&#45;js&#45;&gt;src/common -->
<g id="edge17" class="edge">
<title>src/language&#45;js&#45;&gt;src/common</title>
<path fill="none" stroke="#000000" stroke-width="2" stroke-opacity="0.200000" d="M189.06,-130.05C215.89,-134.42 254.37,-140.68 282.16,-145.2"/>
<polygon fill="#000000" fill-opacity="0.200000" stroke="#000000" stroke-width="2" stroke-opacity="0.200000" points="281.54,-147.23 287.79,-146.12 282.21,-143.08 281.54,-147.23"/>
</g>
<!-- src/language&#45;js&#45;&gt;src/utilities -->
<g id="edge18" class="edge">
<title>src/language&#45;js&#45;&gt;src/utilities</title>
<path fill="none" stroke="#000000" stroke-width="2" stroke-opacity="0.200000" d="M189.35,-121.81C227.48,-119.21 292.77,-118.33 345.25,-135.91 352.9,-138.48 360.48,-142.96 366.89,-147.49"/>
<polygon fill="#000000" fill-opacity="0.200000" stroke="#000000" stroke-width="2" stroke-opacity="0.200000" points="365.35,-148.95 371.4,-150.89 367.87,-145.6 365.35,-148.95"/>
</g>
<!-- src/language&#45;js&#45;&gt;src/document -->
<g id="edge19" class="edge">
<title>src/language&#45;js&#45;&gt;src/document</title>
<path fill="none" stroke="#000000" stroke-width="2" stroke-opacity="0.200000" d="M188.77,-134.2C195.52,-136.67 202.51,-139.59 208.75,-142.91 216.66,-147.12 224.71,-152.79 231.51,-158.07"/>
<polygon fill="#000000" fill-opacity="0.200000" stroke="#000000" stroke-width="2" stroke-opacity="0.200000" points="229.98,-159.53 235.97,-161.65 232.61,-156.26 229.98,-159.53"/>
</g>
<!-- src/language&#45;graphql -->
<g id="node6" class="node">
<title>src/language&#45;graphql</title>
<g id="a_node6"><a xlink:href="src/language-graphql" xlink:title="language&#45;graphql">
<polygon fill="#ffffcc" stroke="black" points="201.25,-103.79 113.72,-103.79 111.75,-101.82 111.75,-86.04 199.28,-86.04 201.25,-88.01 201.25,-103.79"/>
<polyline fill="none" stroke="black" points="199.28,-101.82 111.75,-101.82"/>
<polyline fill="none" stroke="black" points="199.28,-101.82 199.28,-86.04"/>
<polyline fill="none" stroke="black" points="199.28,-101.82 201.25,-103.79"/>
<text xml:space="preserve" text-anchor="start" x="119.75" y="-92.29" font-family="Helvetica,sans-Serif" font-size="9.00">language&#45;graphql</text>
</a>
</g>
</g>
<!-- src/language&#45;graphql&#45;&gt;src/common -->
<g id="edge9" class="edge">
<title>src/language&#45;graphql&#45;&gt;src/common</title>
<path fill="none" stroke="#000000" stroke-width="2" stroke-opacity="0.200000" d="M191.52,-104.22C215.96,-111.24 249.53,-121.58 278.25,-132.91 282.2,-134.48 286.33,-136.23 290.36,-138.02"/>
<polygon fill="#000000" fill-opacity="0.200000" stroke="#000000" stroke-width="2" stroke-opacity="0.200000" points="289.31,-139.85 295.64,-140.43 291.05,-136.03 289.31,-139.85"/>
</g>
<!-- src/language&#45;graphql&#45;&gt;src/utilities -->
<g id="edge8" class="edge">
<title>src/language&#45;graphql&#45;&gt;src/utilities</title>
<path fill="none" stroke="#000000" stroke-width="2" stroke-opacity="0.200000" d="M201.36,-92.88C241.09,-92.85 300.14,-97.47 345.25,-120.91 356.31,-126.66 365.98,-136.78 372.93,-145.52"/>
<polygon fill="#000000" fill-opacity="0.200000" stroke="#000000" stroke-width="2" stroke-opacity="0.200000" points="371.21,-146.74 376.49,-150.29 374.58,-144.22 371.21,-146.74"/>
</g>
<!-- src/language&#45;graphql&#45;&gt;src/document -->
<g id="edge10" class="edge">
<title>src/language&#45;graphql&#45;&gt;src/document</title>
<path fill="none" stroke="#000000" stroke-width="2" stroke-opacity="0.200000" d="M199.05,-104.18C202.49,-105.79 205.78,-107.69 208.75,-109.91 224.4,-121.65 235.57,-141.41 242.12,-155.67"/>
<polygon fill="#000000" fill-opacity="0.200000" stroke="#000000" stroke-width="2" stroke-opacity="0.200000" points="240.09,-156.26 244.39,-160.94 243.94,-154.6 240.09,-156.26"/>
</g>
<!-- src/language&#45;handlebars -->
<g id="node7" class="node">
<title>src/language&#45;handlebars</title>
<g id="a_node7"><a xlink:href="src/language-handlebars" xlink:title="language&#45;handlebars">
<polygon fill="#ffffcc" stroke="black" points="208.75,-59.79 106.22,-59.79 104.25,-57.82 104.25,-42.04 206.78,-42.04 208.75,-44.01 208.75,-59.79"/>
<polyline fill="none" stroke="black" points="206.78,-57.82 104.25,-57.82"/>
<polyline fill="none" stroke="black" points="206.78,-57.82 206.78,-42.04"/>
<polyline fill="none" stroke="black" points="206.78,-57.82 208.75,-59.79"/>
<text xml:space="preserve" text-anchor="start" x="112.25" y="-48.29" font-family="Helvetica,sans-Serif" font-size="9.00">language&#45;handlebars</text>
</a>
</g>
</g>
<!-- src/language&#45;handlebars&#45;&gt;src/common -->
<g id="edge12" class="edge">
<title>src/language&#45;handlebars&#45;&gt;src/common</title>
<path fill="none" stroke="#000000" stroke-width="2" stroke-opacity="0.200000" d="M209.21,-48.08C232.31,-49.3 258.66,-54.41 278.25,-68.91 299.17,-84.4 309.33,-114.02 313.9,-133.1"/>
<polygon fill="#000000" fill-opacity="0.200000" stroke="#000000" stroke-width="2" stroke-opacity="0.200000" points="311.81,-133.37 315.13,-138.79 315.92,-132.48 311.81,-133.37"/>
</g>
<!-- src/language&#45;handlebars&#45;&gt;src/utilities -->
<g id="edge11" class="edge">
<title>src/language&#45;handlebars&#45;&gt;src/utilities</title>
<path fill="none" stroke="#000000" stroke-width="2" stroke-opacity="0.200000" d="M209.17,-43.22C230.99,-41.81 256.36,-42.65 278.25,-49.91 313.51,-61.62 320.04,-72.62 345.25,-99.91 357.85,-113.56 368.76,-131.81 375.81,-144.97"/>
<polygon fill="#000000" fill-opacity="0.200000" stroke="#000000" stroke-width="2" stroke-opacity="0.200000" points="373.85,-145.74 378.48,-150.1 377.58,-143.81 373.85,-145.74"/>
</g>
<!-- src/language&#45;handlebars&#45;&gt;src/document -->
<g id="edge13" class="edge">
<title>src/language&#45;handlebars&#45;&gt;src/document</title>
<path fill="none" stroke="#000000" stroke-width="2" stroke-opacity="0.200000" d="M180.9,-60.16C190.52,-64.9 201.16,-71.47 208.75,-79.91 228.45,-101.83 239.6,-134.87 244.96,-155.1"/>
<polygon fill="#000000" fill-opacity="0.200000" stroke="#000000" stroke-width="2" stroke-opacity="0.200000" points="242.87,-155.4 246.35,-160.72 246.94,-154.39 242.87,-155.4"/>
</g>
<!-- src/language&#45;html -->
<g id="node8" class="node">
<title>src/language&#45;html</title>
<g id="a_node8"><a xlink:href="src/language-html" xlink:title="language&#45;html">
<polygon fill="#ffffcc" stroke="black" points="194.12,-205.79 120.85,-205.79 118.88,-203.82 118.88,-188.04 192.15,-188.04 194.12,-190.01 194.12,-205.79"/>
<polyline fill="none" stroke="black" points="192.15,-203.82 118.88,-203.82"/>
<polyline fill="none" stroke="black" points="192.15,-203.82 192.15,-188.04"/>
<polyline fill="none" stroke="black" points="192.15,-203.82 194.12,-205.79"/>
<text xml:space="preserve" text-anchor="start" x="126.88" y="-194.29" font-family="Helvetica,sans-Serif" font-size="9.00">language&#45;html</text>
</a>
</g>
</g>
<!-- src/language&#45;html&#45;&gt;src/common -->
<g id="edge16" class="edge">
<title>src/language&#45;html&#45;&gt;src/common</title>
<path fill="none" stroke="#000000" stroke-opacity="0.200000" d="M194.45,-200.45C219.18,-201.33 251.92,-199.57 278.25,-187.91 289.34,-183 299.23,-173.54 306.27,-165.41"/>
<polygon fill="none" stroke="#000000" stroke-opacity="0.200000" points="307.51,-167.21 309.71,-161.24 304.27,-164.53 307.51,-167.21"/>
</g>
<!-- src/language&#45;html&#45;&gt;src/utilities -->
<g id="edge15" class="edge">
<title>src/language&#45;html&#45;&gt;src/utilities</title>
<path fill="none" stroke="#000000" stroke-width="2" stroke-opacity="0.200000" d="M194.53,-197.59C203.44,-197.72 212.94,-197.85 221.75,-197.91 246.86,-198.11 253.47,-202.01 278.25,-197.91 305.22,-193.46 334.54,-183.04 355.5,-174.55"/>
<polygon fill="#000000" fill-opacity="0.200000" stroke="#000000" stroke-width="2" stroke-opacity="0.200000" points="356.12,-176.56 360.86,-172.33 354.51,-172.68 356.12,-176.56"/>
</g>
<!-- src/language&#45;html&#45;&gt;src/document -->
<g id="edge14" class="edge">
<title>src/language&#45;html&#45;&gt;src/document</title>
<path fill="none" stroke="#000000" stroke-width="2" stroke-opacity="0.200000" d="M193.14,-187.57C199.55,-185.88 206.25,-184.13 212.69,-182.44"/>
<polygon fill="#000000" fill-opacity="0.200000" stroke="#000000" stroke-width="2" stroke-opacity="0.200000" points="213.05,-184.51 218.32,-180.96 211.99,-180.45 213.05,-184.51"/>
</g>
<!-- src/language&#45;json -->
<g id="node9" class="node">
<title>src/language&#45;json</title>
<g id="a_node9"><a xlink:href="src/language-json" xlink:title="language&#45;json">
<polygon fill="#ffffcc" stroke="black" points="91.25,-176.79 17.97,-176.79 16,-174.82 16,-159.04 89.28,-159.04 91.25,-161.01 91.25,-176.79"/>
<polyline fill="none" stroke="black" points="89.28,-174.82 16,-174.82"/>
<polyline fill="none" stroke="black" points="89.28,-174.82 89.28,-159.04"/>
<polyline fill="none" stroke="black" points="89.28,-174.82 91.25,-176.79"/>
<text xml:space="preserve" text-anchor="start" x="24" y="-165.29" font-family="Helvetica,sans-Serif" font-size="9.00">language&#45;json</text>
</a>
</g>
</g>
<!-- src/language&#45;json&#45;&gt;src/common -->
<g id="edge22" class="edge">
<title>src/language&#45;json&#45;&gt;src/common</title>
<path fill="none" stroke="#000000" stroke-width="2" stroke-opacity="0.200000" d="M91.7,-165.51C142.41,-162.23 232.76,-156.38 282.33,-153.17"/>
<polygon fill="#000000" fill-opacity="0.200000" stroke="#000000" stroke-width="2" stroke-opacity="0.200000" points="282.22,-155.29 288.07,-152.8 281.94,-151.1 282.22,-155.29"/>
</g>
<!-- src/language&#45;json&#45;&gt;src/utilities -->
<g id="edge20" class="edge">
<title>src/language&#45;json&#45;&gt;src/utilities</title>
<path fill="none" stroke="#000000" stroke-width="2" stroke-opacity="0.200000" d="M55.8,-177.28C59.04,-198.58 70.24,-250.46 104.25,-271.91 143.53,-296.69 162.99,-279.88 208.75,-271.91 272.25,-260.86 294.86,-263.11 345.25,-222.91 359.76,-211.34 370.51,-192.82 377,-179.23"/>
<polygon fill="#000000" fill-opacity="0.200000" stroke="#000000" stroke-width="2" stroke-opacity="0.200000" points="378.86,-180.21 379.41,-173.88 375.03,-178.49 378.86,-180.21"/>
</g>
<!-- src/language&#45;json&#45;&gt;src/document -->
<g id="edge23" class="edge">
<title>src/language&#45;json&#45;&gt;src/document</title>
<path fill="none" stroke="#000000" stroke-width="2" stroke-opacity="0.200000" d="M91.64,-168.87C126.43,-169.76 178.16,-171.09 212.71,-171.98"/>
<polygon fill="#000000" fill-opacity="0.200000" stroke="#000000" stroke-width="2" stroke-opacity="0.200000" points="212.45,-174.07 218.5,-172.13 212.56,-169.88 212.45,-174.07"/>
</g>
<!-- src/language&#45;json&#45;&gt;src/language&#45;js -->
<g id="edge21" class="edge">
<title>src/language&#45;json&#45;&gt;src/language&#45;js</title>
<path fill="none" stroke="#000000" stroke-width="2" stroke-opacity="0.200000" d="M76.51,-158.58C90.92,-152.44 109.97,-144.32 125.74,-137.6"/>
<polygon fill="#000000" fill-opacity="0.200000" stroke="#000000" stroke-width="2" stroke-opacity="0.200000" points="126.17,-139.7 130.87,-135.41 124.53,-135.83 126.17,-139.7"/>
</g>
<!-- src/language&#45;markdown -->
<g id="node10" class="node">
<title>src/language&#45;markdown</title>
<g id="a_node10"><a xlink:href="src/language-markdown" xlink:title="language&#45;markdown">
<polygon fill="#ffffcc" stroke="black" points="206.88,-235.79 108.1,-235.79 106.12,-233.82 106.12,-218.04 204.9,-218.04 206.88,-220.01 206.88,-235.79"/>
<polyline fill="none" stroke="black" points="204.9,-233.82 106.12,-233.82"/>
<polyline fill="none" stroke="black" points="204.9,-233.82 204.9,-218.04"/>
<polyline fill="none" stroke="black" points="204.9,-233.82 206.88,-235.79"/>
<text xml:space="preserve" text-anchor="start" x="114.12" y="-224.29" font-family="Helvetica,sans-Serif" font-size="9.00">language&#45;markdown</text>
</a>
</g>
</g>
<!-- src/language&#45;markdown&#45;&gt;src/common -->
<g id="edge26" class="edge">
<title>src/language&#45;markdown&#45;&gt;src/common</title>
<path fill="none" stroke="#000000" stroke-width="2" stroke-opacity="0.200000" d="M207.29,-222.24C230.24,-218.33 257.02,-211.13 278.25,-197.91 290.32,-190.4 300.45,-177.85 307.36,-167.61"/>
<polygon fill="#000000" fill-opacity="0.200000" stroke="#000000" stroke-width="2" stroke-opacity="0.200000" points="309.11,-168.78 310.56,-162.59 305.56,-166.52 309.11,-168.78"/>
</g>
<!-- src/language&#45;markdown&#45;&gt;src/utilities -->
<g id="edge25" class="edge">
<title>src/language&#45;markdown&#45;&gt;src/utilities</title>
<path fill="none" stroke="#000000" stroke-width="2" stroke-opacity="0.200000" d="M207.07,-225.11C246.46,-221.91 301.94,-213.37 345.25,-190.91 352.79,-187.01 360.42,-181.69 366.92,-176.68"/>
<polygon fill="#000000" fill-opacity="0.200000" stroke="#000000" stroke-width="2" stroke-opacity="0.200000" points="368.22,-178.32 371.58,-172.93 365.59,-175.05 368.22,-178.32"/>
</g>
<!-- src/language&#45;markdown&#45;&gt;src/document -->
<g id="edge24" class="edge">
<title>src/language&#45;markdown&#45;&gt;src/document</title>
<path fill="none" stroke="#000000" stroke-width="2" stroke-opacity="0.200000" d="M196.67,-217.63C200.87,-216 204.98,-214.11 208.75,-211.91 219.13,-205.87 228.86,-196.59 236.15,-188.6"/>
<polygon fill="#000000" fill-opacity="0.200000" stroke="#000000" stroke-width="2" stroke-opacity="0.200000" points="237.31,-190.46 239.67,-184.56 234.14,-187.7 237.31,-190.46"/>
</g>
<!-- src/language&#45;yaml -->
<g id="node11" class="node">
<title>src/language&#45;yaml</title>
<g id="a_node11"><a xlink:href="src/language-yaml" xlink:title="language&#45;yaml">
<polygon fill="#ffffcc" stroke="black" points="195.25,-265.79 119.72,-265.79 117.75,-263.82 117.75,-248.04 193.28,-248.04 195.25,-250.01 195.25,-265.79"/>
<polyline fill="none" stroke="black" points="193.28,-263.82 117.75,-263.82"/>
<polyline fill="none" stroke="black" points="193.28,-263.82 193.28,-248.04"/>
<polyline fill="none" stroke="black" points="193.28,-263.82 195.25,-265.79"/>
<text xml:space="preserve" text-anchor="start" x="125.75" y="-254.29" font-family="Helvetica,sans-Serif" font-size="9.00">language&#45;yaml</text>
</a>
</g>
</g>
<!-- src/language&#45;yaml&#45;&gt;src/common -->
<g id="edge29" class="edge">
<title>src/language&#45;yaml&#45;&gt;src/common</title>
<path fill="none" stroke="#000000" stroke-width="2" stroke-opacity="0.200000" d="M195.55,-250.23C221.25,-244.12 254.66,-232.88 278.25,-212.91 292.58,-200.79 303.36,-182.02 309.91,-168.31"/>
<polygon fill="#000000" fill-opacity="0.200000" stroke="#000000" stroke-width="2" stroke-opacity="0.200000" points="311.79,-169.24 312.35,-162.91 307.97,-167.51 311.79,-169.24"/>
</g>
<!-- src/language&#45;yaml&#45;&gt;src/utilities -->
<g id="edge28" class="edge">
<title>src/language&#45;yaml&#45;&gt;src/utilities</title>
<path fill="none" stroke="#000000" stroke-width="2" stroke-opacity="0.200000" d="M195.55,-253.84C235.88,-248.97 299.88,-236.53 345.25,-204.91 355.72,-197.62 365.36,-187.03 372.45,-178.18"/>
<polygon fill="#000000" fill-opacity="0.200000" stroke="#000000" stroke-width="2" stroke-opacity="0.200000" points="373.92,-179.71 375.91,-173.67 370.59,-177.15 373.92,-179.71"/>
</g>
<!-- src/language&#45;yaml&#45;&gt;src/document -->
<g id="edge27" class="edge">
<title>src/language&#45;yaml&#45;&gt;src/document</title>
<path fill="none" stroke="#000000" stroke-width="2" stroke-opacity="0.200000" d="M195.51,-249.4C200.25,-247.45 204.81,-245 208.75,-241.91 225.74,-228.63 236.94,-206.03 243.11,-190.33"/>
<polygon fill="#000000" fill-opacity="0.200000" stroke="#000000" stroke-width="2" stroke-opacity="0.200000" points="245.03,-191.2 245.13,-184.85 241.09,-189.75 245.03,-191.2"/>
</g>
</g>
</svg>
