<?xml version="1.0" encoding="us-ascii" standalone="no"?><svg xmlns="http://www.w3.org/2000/svg" xmlns:xlink="http://www.w3.org/1999/xlink" contentStyleType="text/css" height="124px" preserveAspectRatio="none" style="width:1621px;height:124px;background:#FFFFFF;" version="1.1" viewBox="0 0 1621 124" width="1621px" zoomAndPan="magnify"><defs/><g><!--cluster Prettier Formatting Pipeline--><g id="cluster_Prettier Formatting Pipeline"><path d="M327.5,6 L505.5,6 A3.75,3.75 0 0 1 508,8.5 L515,26.9487 L1281.5,26.9487 A2.5,2.5 0 0 1 1284,29.4487 L1284,114.5 A2.5,2.5 0 0 1 1281.5,117 L327.5,117 A2.5,2.5 0 0 1 325,114.5 L325,8.5 A2.5,2.5 0 0 1 327.5,6 " fill="#FFFFFF" style="stroke:#EA5E5E;stroke-width:1.5;"/><line style="stroke:#EA5E5E;stroke-width:1.5;" x1="325" x2="515" y1="26.9487" y2="26.9487"/><text fill="#EA5E5E" font-family="Arial" font-size="13" font-weight="bold" lengthAdjust="spacing" textLength="177" x="329" y="20.1938">Prettier Formatting Pipeline</text></g><!--entity Stage1--><g id="elem_Stage1"><rect fill="#56B3B4" height="57.5977" rx="2.5" ry="2.5" style="stroke:#6C757D;stroke-width:0.5;" width="198" x="341" y="39"/><rect fill="#56B3B4" height="10" style="stroke:#6C757D;stroke-width:0.5;" width="15" x="519" y="44"/><rect fill="#56B3B4" height="2" style="stroke:#6C757D;stroke-width:0.5;" width="4" x="517" y="46"/><rect fill="#56B3B4" height="2" style="stroke:#6C757D;stroke-width:0.5;" width="4" x="517" y="50"/><text fill="#333333" font-family="Arial" font-size="12" lengthAdjust="spacing" textLength="91" x="356" y="70.2559">Stage 1: Parsing</text><text fill="#333333" font-family="Arial" font-size="12" lengthAdjust="spacing" textLength="158" x="356" y="84.0547">(External Language Parsers)</text></g><!--entity Stage2--><g id="elem_Stage2"><rect fill="#F7BA3E" height="57.5977" rx="2.5" ry="2.5" style="stroke:#6C757D;stroke-width:0.5;" width="245" x="692" y="39"/><rect fill="#F7BA3E" height="10" style="stroke:#6C757D;stroke-width:0.5;" width="15" x="917" y="44"/><rect fill="#F7BA3E" height="2" style="stroke:#6C757D;stroke-width:0.5;" width="4" x="915" y="46"/><rect fill="#F7BA3E" height="2" style="stroke:#6C757D;stroke-width:0.5;" width="4" x="915" y="50"/><text fill="#333333" font-family="Arial" font-size="12" lengthAdjust="spacing" textLength="205" x="707" y="70.2559">Stage 2: Intermediate Representation</text><text fill="#333333" font-family="Arial" font-size="12" lengthAdjust="spacing" textLength="103" x="707" y="84.0547">(Language Printer)</text></g><!--entity Stage3--><g id="elem_Stage3"><rect fill="#56B3B4" height="57.5977" rx="2.5" ry="2.5" style="stroke:#6C757D;stroke-width:0.5;" width="180" x="1088" y="39"/><rect fill="#56B3B4" height="10" style="stroke:#6C757D;stroke-width:0.5;" width="15" x="1248" y="44"/><rect fill="#56B3B4" height="2" style="stroke:#6C757D;stroke-width:0.5;" width="4" x="1246" y="46"/><rect fill="#56B3B4" height="2" style="stroke:#6C757D;stroke-width:0.5;" width="4" x="1246" y="50"/><text fill="#333333" font-family="Arial" font-size="12" lengthAdjust="spacing" textLength="140" x="1103" y="70.2559">Stage 3: Layout &amp; Printing</text><text fill="#333333" font-family="Arial" font-size="12" lengthAdjust="spacing" textLength="129" x="1103" y="84.0547">(Central Layout Engine)</text></g><!--entity Input--><g id="elem_Input"><path d="M6,49.5 C6,39.5 66.5,39.5 66.5,39.5 C66.5,39.5 127,39.5 127,49.5 L127,86.0977 C127,96.0977 66.5,96.0977 66.5,96.0977 C66.5,96.0977 6,96.0977 6,86.0977 L6,49.5 " fill="#F7BA3E" style="stroke:#56B3B4;stroke-width:0.5;"/><path d="M6,49.5 C6,59.5 66.5,59.5 66.5,59.5 C66.5,59.5 127,59.5 127,49.5 " fill="none" style="stroke:#56B3B4;stroke-width:0.5;"/><text fill="#333333" font-family="Arial" font-size="12" lengthAdjust="spacing" textLength="90" x="16" y="74.7559">Raw Source File</text><text fill="#333333" font-family="Arial" font-size="12" lengthAdjust="spacing" textLength="101" x="16" y="88.5547">(Unformatted Text)</text></g><!--entity Output--><g id="elem_Output"><path d="M1485,49.5 C1485,39.5 1544.5,39.5 1544.5,39.5 C1544.5,39.5 1604,39.5 1604,49.5 L1604,86.0977 C1604,96.0977 1544.5,96.0977 1544.5,96.0977 C1544.5,96.0977 1485,96.0977 1485,86.0977 L1485,49.5 " fill="#56B3B4" style="stroke:#56B3B4;stroke-width:0.5;"/><path d="M1485,49.5 C1485,59.5 1544.5,59.5 1544.5,59.5 C1544.5,59.5 1604,59.5 1604,49.5 " fill="none" style="stroke:#56B3B4;stroke-width:0.5;"/><text fill="#333333" font-family="Arial" font-size="12" lengthAdjust="spacing" textLength="79" x="1495" y="74.7559">Formatted File</text><text fill="#333333" font-family="Arial" font-size="12" lengthAdjust="spacing" textLength="99" x="1495" y="88.5547">(Clean Code Text)</text></g><!--link Input to Stage1--><g id="link_Input_Stage1"><path d="M127.19,68 C184.72,68 266.8,68 334.69,68 " fill="none" id="Input-to-Stage1" style="stroke:#333333;stroke-width:1.0;"/><polygon fill="#333333" points="340.69,68,331.69,64,335.69,68,331.69,72,340.69,68" style="stroke:#333333;stroke-width:1.0;"/><text fill="#555555" font-family="Arial" font-size="11" lengthAdjust="spacing" textLength="74" x="196" y="52.3179">Feeds raw text</text><text fill="#555555" font-family="Arial" font-size="11" lengthAdjust="spacing" textLength="150" x="158" y="64.9668">(throws away original spaces)</text></g><!--link Stage1 to Stage2--><g id="link_Stage1_Stage2"><path d="M539.36,68 C586.13,68 636.5,68 685.93,68 " fill="none" id="Stage1-to-Stage2" style="stroke:#333333;stroke-width:1.0;"/><polygon fill="#333333" points="691.93,68,682.93,64,686.93,68,682.93,72,691.93,68" style="stroke:#333333;stroke-width:1.0;"/><text fill="#555555" font-family="Arial" font-size="11" lengthAdjust="spacing" textLength="81" x="575" y="52.3179">Passes Abstract</text><text fill="#555555" font-family="Arial" font-size="11" lengthAdjust="spacing" textLength="91" x="570" y="64.9668">Syntax Tree (AST)</text></g><!--link Stage2 to Stage3--><g id="link_Stage2_Stage3"><path d="M937.13,68 C986.45,68 1036.36,68 1081.79,68 " fill="none" id="Stage2-to-Stage3" style="stroke:#333333;stroke-width:1.0;"/><polygon fill="#333333" points="1087.79,68,1078.79,64,1082.79,68,1078.79,72,1087.79,68" style="stroke:#333333;stroke-width:1.0;"/><text fill="#555555" font-family="Arial" font-size="11" lengthAdjust="spacing" textLength="89" x="968" y="52.3179">Passes instruction</text><text fill="#555555" font-family="Arial" font-size="11" lengthAdjust="spacing" textLength="44" x="990.5" y="64.9668">Doc Tree</text></g><!--link Stage3 to Output--><g id="link_Stage3_Output"><path d="M1268.17,68 C1335.61,68 1420.3,68 1478.84,68 " fill="none" id="Stage3-to-Output" style="stroke:#333333;stroke-width:1.0;"/><polygon fill="#333333" points="1484.84,68,1475.84,64,1479.84,68,1475.84,72,1484.84,68" style="stroke:#333333;stroke-width:1.0;"/><text fill="#555555" font-family="Arial" font-size="11" lengthAdjust="spacing" textLength="102" x="1326.5" y="52.3179">Saves uniform layout</text><text fill="#555555" font-family="Arial" font-size="11" lengthAdjust="spacing" textLength="153" x="1301" y="64.9668">(semicolons, quotes, wrapping)</text></g><!--SRC=[hLHDYzj03BtxLuWKoYvq3ucR3UHGIB8E54eRrjbRBrfRSOQrPrpDk4vQ-jyhsnFdOzF3GkTYaFIUdfwKs1UbIsGiO8iwhLavHnesc5iAR9yhZ3R9bar1hr9sYwcfbSvy9gUD0sU0LRPra2gcn2cZWnD8YWwVqHBy3a3U79ENZ4sbquN93SExPVkwdE6KsCV7z_Dm_h6DBursFXgshuz-HH4vOuLv7uhLBuBXAFXpAY8nHMaqQVTM5VUBoNZoy9zKbD8LipSx4St6qJYwr70H_QU6y5m3CflQAxW-pS7_zbsG3Q_r4_v-oOD7h24s5IS4IvNJTttpf3U62vHJIs5DEtSx0BJmMPULavadyraO1S71ci6AoJb5B4rQK7DhArLIhZGDlExZDWUnQr33AQoGhTHAlsZdY3Ncy0LrLZNf9aTikyOjOdXsNw_uHbFH9om5fGeTmIELJ5OAiBbkwN6aPjKKdb2F-g6kKeTJqRKtCllx3jo9NaW9jvhRNAGpcVU4DUm5dxczx9trPYzoGYsBJUd4ws-LQyts347d_TtTfuCPKrWIfHPObkS49aHE_W1g2rZZ7epyl5NZg9KraRqDFAnd646p06l9mkpPoY29KCHxyMi7QoQ2crcyzh3H4HOUOKeBh4ewUnzCqi82NzK0_0nJYF6dr5TQDLS5UUkNwBLKg4GkLziFyACoZkHRCvQb-7iR_0K0]--></g></svg>